<svg xmlns="http://www.w3.org/2000/svg" width="42" height="42" viewBox="0 0 42 42" fill="none"><path d="M33.2129 24.9388L31.824 20.7722C31.7733 20.6201 31.6734 20.4883 31.5387 20.3985L24.432 15.6612L24.6203 13.7596C24.6203 11.7624 22.9953 10.1389 20.9996 10.1389C19.0039 10.1389 17.3789 11.7624 17.3818 13.832L17.5643 15.6626L10.4591 20.3999C10.3258 20.4897 10.2244 20.6201 10.1737 20.7736L8.72547 25.1184C8.63278 25.3965 8.71678 25.7021 8.93692 25.8947C9.15705 26.0859 9.47423 26.1235 9.73492 25.9946L18.174 21.7744L18.7939 27.9744L16.1392 30.6277C15.9321 30.8348 15.8698 31.1461 15.9828 31.417C16.0972 31.6864 16.3622 31.863 16.6548 31.863H20.2755C20.5492 31.863 20.7997 31.7081 20.9228 31.4633L20.9996 31.3098L21.0764 31.4619C21.1995 31.7066 21.45 31.8616 21.7237 31.8616H25.3444C25.637 31.8616 25.902 31.6849 26.0135 31.4141C26.1265 31.1433 26.0642 30.8319 25.8571 30.6248L23.2024 27.9715L23.8223 21.7715L32.2614 25.9917C32.3686 26.0439 32.4873 26.0656 32.6003 26.0685C32.9986 26.0656 33.3389 25.7484 33.3389 25.3444C33.3389 25.1952 33.2926 25.0547 33.2129 24.9388ZM23.5312 20.0075C23.3183 19.9017 23.0663 19.9046 22.8577 20.0219C22.6492 20.1364 22.5102 20.3464 22.487 20.5839L21.7281 28.1699C21.7064 28.3857 21.7831 28.6001 21.9366 28.7536L23.5964 30.4133H22.1713L21.647 29.3648C21.4008 28.8753 20.597 28.8753 20.3508 29.3648L19.828 30.4148H18.4029L20.0626 28.755C20.2161 28.6015 20.2929 28.3872 20.2711 28.1714L19.5122 20.5853C19.4876 20.3478 19.35 20.1378 19.1415 20.0234C18.9329 19.9061 18.6809 19.9032 18.468 20.0089L10.6531 23.9164L11.47 21.4673L18.7316 16.6257C18.9546 16.4766 19.0777 16.2188 19.0502 15.9508L18.8272 13.7596C18.8272 12.5619 19.8019 11.5872 20.9996 11.5872C22.1973 11.5872 23.172 12.5619 23.1749 13.6872L22.949 15.9508C22.9215 16.2188 23.0446 16.4766 23.2676 16.6257L30.5293 21.4673L31.3461 23.9164L23.5312 20.0075Z" fill="white"></path><path d="M21.0002 2.89502C11.0172 2.89502 2.89673 11.0155 2.89673 20.9985C2.89673 30.9814 11.0172 39.1019 21.0002 39.1019C30.9831 39.1019 39.1036 30.9814 39.1036 20.9985C39.1036 11.0155 30.9831 2.89502 21.0002 2.89502ZM21.0002 37.6536C11.8167 37.6536 4.345 30.182 4.345 20.9985C4.345 11.8149 11.8167 4.34329 21.0002 4.34329C30.1837 4.34329 37.6553 11.8149 37.6553 20.9985C37.6553 30.182 30.1837 37.6536 21.0002 37.6536Z" fill="white"></path><path d="M21 0C9.42103 0 0 9.42103 0 21C0 32.579 9.42103 42 21 42C32.579 42 42 32.579 42 21C42 9.42103 32.579 0 21 0ZM21 40.5517C10.219 40.5517 1.44828 31.781 1.44828 21C1.44828 10.219 10.219 1.44828 21 1.44828C31.781 1.44828 40.5517 10.219 40.5517 21C40.5517 31.781 31.781 40.5517 21 40.5517Z" fill="white"></path></svg>
