<svg xmlns="http://www.w3.org/2000/svg" width="39" height="42" viewBox="0 0 39 42" fill="none">
    <path d="M17.4201 0L18.32 4.46661H15.1706L14.2707 3.12662H13.3709L14.2707 5.3599L13.3709 7.59324H14.2707L15.1706 6.25327H18.32L17.4201 10.7199H18.7699C18.7699 10.7199 21.0195 6.25327 21.4694 6.25327H24.1689C25.0687 5.8066 25.0687 4.91329 24.1689 4.46661H21.4694L18.7699 0H17.4201ZM11.8806 5.82054L9.18108 6.71383L9.46227 7.56531L12.1618 6.67202L11.8806 5.82054ZM26.559 5.82054L26.2778 6.67202L28.9773 7.56531L29.2585 6.71383L26.559 5.82054ZM6.8612 8.08177L4.16171 9.42176L4.56945 10.2173L7.26894 8.87737L6.8612 8.08177ZM31.5643 8.08177L31.1566 8.87737L33.8561 10.2173L34.2638 9.42176L31.5643 8.08177ZM2.24957 11.2921L0 13.5254L0.632694 14.1536L2.88227 11.9203L2.24957 11.2921ZM36.176 11.2921L35.5433 11.9203L37.7928 14.1536L38.4255 13.5254L36.176 11.2921ZM19.1073 11.5155C10.6374 11.5155 3.76803 18.363 3.76803 26.7717C3.76803 35.1803 10.6374 42 19.1073 42C27.5772 42 34.4466 35.1804 34.4466 26.7717C34.4466 18.3631 27.5772 11.5155 19.1073 11.5155ZM19.1073 12.4227C20.2802 12.4227 21.4179 12.5658 22.5098 12.8275C21.8916 13.3382 21.3866 13.8929 20.8929 14.6281C25.4113 14.6281 22.2786 18.4325 22.9738 19.1226C23.3213 19.4677 24.3696 18.7737 24.7172 18.7737V19.4576C24.7172 20.1478 21.9294 21.1839 21.5818 23.2542C21.2343 27.3949 24.3713 25.3356 26.1091 26.7158C27.4994 28.4411 27.4886 31.892 28.8789 32.9272C29.2265 31.2019 30.2787 30.8559 30.9738 29.1306C31.5973 27.9533 32.2444 26.5114 33.5187 25.8923C33.5363 26.1833 33.5608 26.4763 33.5608 26.7717C33.5608 34.6975 27.0909 41.0927 19.1073 41.0927C11.1237 41.0927 4.65381 34.6975 4.65381 26.7717C4.65381 25.4625 4.82924 24.194 5.15996 22.989C6.14901 23.4495 6.68711 24.4752 6.98774 25.669C8.72558 27.3943 9.42009 29.1261 9.42009 31.1964C11.1579 33.2668 13.9474 34.649 13.9474 38.7897L14.9878 39.1386C15.2604 38.5974 15.1075 38.013 15.3252 37.4078C17.0631 32.577 19.8525 32.9162 19.8525 29.4656C17.0719 28.7755 15.678 24.9883 10.812 27.7488C10.1169 27.4037 10.1231 26.3591 10.1231 25.669C9.08037 24.9789 8.38359 24.2996 8.73116 22.9192L9.77159 23.6032C11.5094 20.1526 16.0259 19.1171 17.0686 17.3918C17.3954 16.0943 16.4836 14.4901 15.508 12.8694C16.6586 12.5767 17.8646 12.4227 19.1073 12.4227Z"
          fill="white"></path>
</svg>
