<svg xmlns="http://www.w3.org/2000/svg" width="40" height="50" viewBox="0 0 40 50" fill="none"><path d="M13.0071 13.4088C12.8838 13.4167 12.765 13.4578 12.663 13.5275C12.5611 13.5973 12.4798 13.6931 12.4278 13.8051L6.86964 25.7236C6.30459 26.9363 6.21954 28.318 6.63158 29.5908C7.04362 30.8637 7.9222 31.9335 9.09073 32.585L2.9065 45.8445L0.531773 44.735C0.440314 44.6967 0.337557 44.6953 0.24507 44.7311C0.152584 44.7669 0.0775617 44.8371 0.0357501 44.927C-0.00606153 45.017 -0.0114104 45.1196 0.0208258 45.2134C0.0530621 45.3072 0.120377 45.3848 0.20864 45.43L5.65546 47.9719C5.7469 48.0101 5.84956 48.0115 5.94192 47.9756C6.03429 47.9397 6.10919 47.8695 6.15095 47.7797C6.1927 47.6898 6.19807 47.5873 6.16592 47.4936C6.13377 47.3998 6.0666 47.3222 5.97848 47.2769L3.60158 46.1675L9.78353 32.9103C11.0342 33.3869 12.419 33.3723 13.6593 32.8693C14.8997 32.3663 15.9035 31.4122 16.4689 30.1991L22.0249 18.2806C22.1019 18.1155 22.1102 17.9265 22.048 17.7552C21.9857 17.5839 21.8581 17.4445 21.693 17.3673L13.3412 13.4733C13.237 13.424 13.1221 13.4017 13.0071 13.4084L13.0071 13.4088ZM10.5721 19.5975C11.1285 20.0955 11.7811 20.474 12.4896 20.7097C13.1981 20.9453 13.9474 21.0332 14.6912 20.9676C15.5197 20.8048 16.3777 20.8882 17.1592 21.2077C17.9408 21.5272 18.6116 22.0686 19.0888 22.7652L15.7738 29.8741C15.2658 30.9618 14.3466 31.8032 13.2183 32.2135C12.0901 32.6237 10.8451 32.5692 9.75706 32.062C8.66899 31.5547 7.82686 30.6361 7.41576 29.5081C7.00466 28.3802 7.05824 27.1352 7.56472 26.0468L10.5721 19.5975Z" fill="white"></path><path d="M34.6827 14.6685C34.6438 14.6695 34.605 14.6737 34.5668 14.6813L25.4911 16.283C25.3115 16.3143 25.1516 16.4157 25.0468 16.5649C24.9419 16.714 24.9005 16.8987 24.9318 17.0784L27.2153 30.0281C27.4476 31.3458 28.1701 32.5268 29.2376 33.3335C30.3051 34.1403 31.6385 34.5129 32.9695 34.3766L35.5114 48.7835L32.9295 49.2402C32.8309 49.2596 32.7439 49.3169 32.6871 49.3997C32.6303 49.4826 32.6083 49.5844 32.6258 49.6834C32.6433 49.7823 32.6989 49.8703 32.7807 49.9287C32.8624 49.9871 32.9638 50.011 33.0631 49.9954L38.9822 48.9506C39.0809 48.9314 39.1681 48.8742 39.225 48.7912C39.2819 48.7083 39.304 48.6064 39.2865 48.5074C39.2689 48.4083 39.2132 48.3201 39.1313 48.2618C39.0494 48.2034 38.9478 48.1796 38.8485 48.1954L36.2665 48.6498L33.7247 34.243C35.022 33.9159 36.1474 33.1101 36.8747 31.9873C37.6021 30.8645 37.8775 29.5079 37.6455 28.1903L35.3622 15.2405C35.334 15.0809 35.2504 14.9364 35.1261 14.8324C35.0018 14.7285 34.8448 14.6718 34.6827 14.6724L34.6827 14.6685ZM29.2292 21.1311C29.952 21.0992 30.6713 21.2494 31.321 21.5678C32.0224 21.8237 32.7688 21.933 33.5141 21.8889C34.2594 21.8448 34.9877 21.6483 35.6539 21.3114L36.8904 28.3198C36.9936 28.9055 36.9805 29.5058 36.8518 30.0864C36.7231 30.6671 36.4813 31.2165 36.1401 31.7037C35.799 32.1909 35.3653 32.6061 34.8637 32.9257C34.3621 33.2452 33.8025 33.4628 33.2168 33.566C32.6311 33.6693 32.0308 33.6562 31.4502 33.5275C30.8696 33.3988 30.32 33.157 29.8329 32.8159C28.849 32.1269 28.1791 31.0754 27.9705 29.8926L26.6093 22.1668C27.3423 21.5385 28.2647 21.1739 29.2292 21.131V21.1311Z" fill="white"></path><path d="M24.8861 1.14436L22.779 2.24132L21.099 0.561547C21.0924 0.555173 21.0839 0.551042 21.0748 0.549752C21.0658 0.548461 21.0565 0.550056 21.0484 0.554339C21.0402 0.558622 21.0337 0.565374 21.0296 0.573604C21.0256 0.581835 21.0242 0.591025 21.0257 0.600078L21.4396 2.94393L19.2828 3.94967C19.2742 3.95263 19.2668 3.95827 19.2615 3.96566C19.2562 3.97305 19.2534 3.98188 19.2534 3.99095C19.2534 4.00003 19.2562 4.00886 19.2615 4.01625C19.2668 4.02364 19.2742 4.02928 19.2828 4.03224L21.6331 4.44704L22.047 6.7977C22.0484 6.80679 22.0527 6.8152 22.0592 6.82169C22.0658 6.82818 22.0742 6.83245 22.0833 6.83388C22.0923 6.83531 22.1016 6.83373 22.1098 6.82955C22.118 6.82537 22.1247 6.81874 22.1289 6.81055L23.1346 4.65359L25.4785 5.06721C25.488 5.07048 25.4984 5.07033 25.5078 5.06681C25.5173 5.0633 25.5252 5.05665 25.5303 5.04794C25.5354 5.03924 25.5373 5.02906 25.5357 5.01911C25.5341 5.00916 25.5291 4.99998 25.5216 4.99329L23.8416 3.31338L24.9387 1.20609C24.9435 1.19772 24.9453 1.18795 24.9439 1.17844C24.9425 1.16893 24.9381 1.16012 24.9312 1.15341C24.9243 1.1467 24.9154 1.14248 24.9058 1.14135C24.8963 1.14022 24.8867 1.14233 24.8784 1.14725L24.8861 1.14436Z" fill="white"></path><path d="M19.1682 11.7011L19.4916 10.9546C19.6741 10.5318 20.0112 10.1945 20.4339 10.0117L21.1806 9.68919C21.1914 9.68455 21.2007 9.67689 21.2072 9.66705C21.2137 9.6572 21.2171 9.64569 21.2171 9.63389C21.2171 9.62209 21.2137 9.61058 21.2072 9.60073C21.2007 9.59088 21.1914 9.58309 21.1806 9.57845L20.4339 9.25592C20.0112 9.0732 19.6742 8.73612 19.4916 8.31334L19.1682 7.5667C19.1638 7.55546 19.1561 7.54571 19.1461 7.53892C19.1361 7.53212 19.1243 7.52856 19.1122 7.52856C19.1001 7.52856 19.0883 7.53212 19.0783 7.53892C19.0683 7.54571 19.0606 7.55546 19.0562 7.5667L18.7328 8.31334C18.5501 8.7362 18.2129 9.07329 17.79 9.25592L17.0434 9.57845C17.0325 9.58309 17.0233 9.59088 17.0168 9.60073C17.0103 9.61058 17.0068 9.62209 17.0068 9.63389C17.0068 9.64569 17.0103 9.6572 17.0168 9.66705C17.0233 9.67689 17.0325 9.68455 17.0434 9.68919L17.79 10.0117C18.2129 10.1944 18.5502 10.5317 18.7328 10.9546L19.0562 11.7011C19.0606 11.7123 19.0683 11.7219 19.0783 11.7287C19.0883 11.7355 19.1001 11.7392 19.1122 11.7392C19.1243 11.7392 19.1361 11.7355 19.1461 11.7287C19.1561 11.7219 19.1638 11.7123 19.1682 11.7011Z" fill="white"></path><path d="M32.5336 5.21325L32.9345 4.27985C33.1629 3.75124 33.5845 3.32978 34.1131 3.1015L35.0464 2.69823C35.0599 2.6924 35.0714 2.68273 35.0795 2.67045C35.0876 2.65816 35.0919 2.64387 35.0919 2.62916C35.0919 2.61446 35.0876 2.60004 35.0795 2.58775C35.0714 2.57546 35.0599 2.5658 35.0464 2.55997L34.1131 2.1567C33.5845 1.92842 33.1629 1.50696 32.9345 0.978352L32.5336 0.0450841C32.5277 0.0316881 32.5181 0.0203196 32.5058 0.0123195C32.4936 0.00431936 32.4793 0 32.4646 0C32.45 0 32.4357 0.00431936 32.4234 0.0123195C32.4112 0.0203196 32.4015 0.0316881 32.3957 0.0450841L31.9904 0.978352C31.7621 1.50688 31.3407 1.92833 30.8122 2.1567L29.8789 2.55997C29.8654 2.5658 29.8539 2.57546 29.8459 2.58775C29.8378 2.60004 29.8335 2.61446 29.8335 2.62916C29.8335 2.64387 29.8378 2.65816 29.8459 2.67045C29.8539 2.68273 29.8654 2.6924 29.8789 2.69823L30.8122 3.1015C31.3407 3.32987 31.7621 3.75132 31.9904 4.27985L32.3957 5.21325C32.4015 5.22664 32.4112 5.23801 32.4234 5.24601C32.4357 5.25401 32.45 5.2582 32.4646 5.2582C32.4793 5.2582 32.4936 5.25401 32.5058 5.24601C32.5181 5.23801 32.5277 5.22664 32.5336 5.21325Z" fill="white"></path><path d="M28.8618 8.34871L28.4609 7.41531C28.455 7.40192 28.4453 7.39055 28.4331 7.38255C28.4208 7.37455 28.4065 7.37036 28.3919 7.37036C28.3773 7.37036 28.363 7.37455 28.3507 7.38255C28.3385 7.39055 28.3288 7.40192 28.3229 7.41531L27.922 8.34871C27.6937 8.87724 27.2723 9.29869 26.7438 9.52706L25.8101 9.92993C25.7966 9.93577 25.7851 9.94543 25.777 9.95772C25.7689 9.97 25.7646 9.9843 25.7646 9.999C25.7646 10.0137 25.7689 10.0281 25.777 10.0404C25.7851 10.0527 25.7966 10.0624 25.8101 10.0682L26.7438 10.4709C27.2723 10.6993 27.6937 11.1209 27.922 11.6494L28.3229 12.5827C28.3288 12.5961 28.3385 12.6075 28.3507 12.6155C28.363 12.6235 28.3773 12.6278 28.3919 12.6278C28.4065 12.6278 28.4208 12.6235 28.4331 12.6155C28.4453 12.6075 28.455 12.5961 28.4609 12.5827L28.8618 11.6494C29.0902 11.1208 29.5117 10.6992 30.0404 10.4709L30.9733 10.0682C30.9868 10.0624 30.9983 10.0527 31.0063 10.0404C31.0144 10.0281 31.0187 10.0137 31.0187 9.999C31.0187 9.9843 31.0144 9.97 31.0063 9.95772C30.9983 9.94543 30.9868 9.93577 30.9733 9.92993L30.0404 9.52706C29.5117 9.29878 29.0902 8.87732 28.8618 8.34871Z" fill="white"></path></svg>
