<svg xmlns="http://www.w3.org/2000/svg" width="43" height="42" viewBox="0 0 43 42" fill="none"><path d="M28.1951 4.90061C28.3642 4.80846 28.4695 4.63099 28.4695 4.43878C28.4695 4.24657 28.3642 4.0691 28.1951 3.97694L27.2378 3.4535C26.371 2.97955 25.6621 2.27074 25.1882 1.40342L24.6642 0.446048C24.4789 0.106913 23.9243 0.10744 23.74 0.446048L23.2166 1.40342C22.7426 2.27021 22.0333 2.97902 21.1665 3.4535L20.2091 3.97694C20.0406 4.0691 19.9353 4.24657 19.9353 4.43878C19.9353 4.63099 20.0406 4.80846 20.2091 4.90061L21.1665 5.42406C22.0333 5.898 22.7421 6.60682 23.2166 7.47414L23.74 8.43151C23.8322 8.60055 24.0097 8.70587 24.2019 8.70587C24.3941 8.70587 24.5715 8.60107 24.6637 8.43151L25.1877 7.47414C25.6616 6.60734 26.3704 5.89853 27.2372 5.42406L28.1951 4.90061ZM26.7322 4.50092C25.6885 5.07176 24.8348 5.92486 24.264 6.96965L24.2024 7.08234L24.1408 6.96965C23.5699 5.92539 22.7158 5.07176 21.672 4.50092L21.5594 4.4393L21.672 4.37769C22.7158 3.80738 23.5694 2.95375 24.1408 1.90896L24.2024 1.79627L24.264 1.90896C24.8348 2.95322 25.6885 3.80685 26.7327 4.37769L26.8449 4.4393L26.7322 4.50092Z" fill="white"></path><path d="M7.05122 12.8318L7.89485 11.2889C8.68844 9.83859 9.87436 8.65214 11.3252 7.85855L12.8676 7.01492C13.0361 6.92277 13.1414 6.7453 13.1414 6.55309C13.1414 6.36088 13.0366 6.18341 12.8676 6.09126L11.3252 5.24658C9.87489 4.45404 8.68844 3.26759 7.89485 1.81679L7.05122 0.274362C6.95907 0.105322 6.7816 0 6.58939 0C6.39718 0 6.21971 0.104795 6.12756 0.274362L5.28393 1.81679C4.49034 3.26759 3.30442 4.45404 1.85362 5.24711L0.311189 6.09126C0.142148 6.18341 0.0373535 6.36088 0.0373535 6.55309C0.0373535 6.7453 0.142675 6.92277 0.311189 7.01492L1.85362 7.85855C3.30389 8.65214 4.49034 9.83859 5.28393 11.2889L6.12756 12.8318C6.21971 13.0009 6.39718 13.1062 6.58939 13.1062C6.7816 13.1062 6.95854 13.0009 7.05122 12.8318ZM6.2076 10.7838C5.31711 9.15611 3.98638 7.82537 2.35863 6.93488L1.66088 6.55309L2.35863 6.17077C3.98638 5.28134 5.31711 3.95008 6.2076 2.32181L6.58939 1.62458L6.97065 2.32181C7.86115 3.95008 9.19188 5.28081 10.8196 6.17077L11.5174 6.55309L10.8196 6.93488C9.19188 7.82484 7.86115 9.15611 6.97065 10.7838L6.58939 11.4811L6.2076 10.7838Z" fill="white"></path><path d="M27.3013 36.6497C26.4129 36.1636 25.6862 35.4369 25.1996 34.5485L24.6641 33.5696C24.4787 33.2304 23.9242 33.231 23.7399 33.5696L23.2043 34.548C22.7183 35.4369 21.991 36.1636 21.1032 36.6497L20.1242 37.1853C19.9552 37.2774 19.8499 37.4549 19.8499 37.6471C19.8499 37.8393 19.9546 38.0168 20.1237 38.1089L21.1027 38.645C21.991 39.1311 22.7178 39.8578 23.2043 40.7462L23.7399 41.7251C23.8321 41.8942 24.0095 41.9995 24.2017 41.9995C24.3939 41.9995 24.5714 41.8947 24.6636 41.7251L25.1991 40.7467C25.6852 39.8578 26.4124 39.1311 27.3008 38.645L28.2798 38.1089C28.4488 38.0168 28.5536 37.8393 28.5536 37.6471C28.5536 37.4549 28.4483 37.2774 28.2792 37.1853L27.3013 36.6497ZM26.7958 37.7213C25.7305 38.3032 24.8589 39.1753 24.2755 40.2412L24.2017 40.3754L24.1285 40.2406C23.5451 39.1753 22.6735 38.3032 21.6082 37.7213L21.4739 37.6471L21.6082 37.5734C22.6735 36.9915 23.5451 36.1194 24.1285 35.0536L24.2017 34.9193L24.2755 35.0541C24.8589 36.1194 25.7305 36.9915 26.7958 37.5734L26.9301 37.6471L26.7958 37.7213Z" fill="white"></path><path d="M41.027 32.2703L42.0059 31.7343C42.175 31.6421 42.2798 31.4646 42.2798 31.2724C42.2798 31.0802 42.1744 30.9028 42.0054 30.8106L41.0264 30.275C40.1375 29.7884 39.4108 29.0617 38.9247 28.1739L38.3892 27.1944C38.2043 26.8558 37.6498 26.8558 37.465 27.1944L36.9294 28.1733C36.4434 29.0623 35.7167 29.7884 34.8283 30.275L33.8493 30.8106C33.6803 30.9028 33.575 31.0802 33.575 31.2724C33.575 31.4646 33.6797 31.6421 33.8488 31.7343L34.8277 32.2703C35.7167 32.7564 36.4434 33.4831 36.9294 34.3715L37.465 35.3505C37.5571 35.5195 37.7346 35.6248 37.9268 35.6248C38.119 35.6248 38.2965 35.52 38.3887 35.3505L38.9242 34.3715C39.4113 33.4831 40.138 32.7564 41.027 32.2703ZM38.0011 33.8665L37.9274 34.0008L37.8542 33.8665C37.2712 32.8006 36.3997 31.9291 35.3338 31.3467L35.1995 31.2724L35.3338 31.1987C36.3997 30.6157 37.2712 29.7442 37.8542 28.6789L37.9274 28.5446L38.0011 28.6794C38.584 29.7442 39.4556 30.6157 40.5214 31.1987L40.6557 31.2724L40.5214 31.3467C39.4556 31.9296 38.584 32.8006 38.0011 33.8665Z" fill="white"></path><path d="M1.25332 37.4096C2.14224 37.8957 2.86895 38.6224 3.35501 39.5108L3.89057 40.4898C3.98325 40.6588 4.16019 40.7641 4.3524 40.7641C4.54514 40.7641 4.72208 40.6593 4.81424 40.4898L5.34979 39.5108C5.83585 38.6219 6.56257 37.8957 7.45148 37.4096L8.43044 36.8736C8.59948 36.7814 8.70428 36.6039 8.70428 36.4117C8.70428 36.2195 8.59896 36.0421 8.42992 35.9499L7.45095 35.4143C6.56257 34.9283 5.83585 34.2016 5.34927 33.3132L4.81371 32.3337C4.72155 32.1646 4.54409 32.0593 4.35188 32.0593C4.15966 32.0593 3.9822 32.1641 3.89004 32.3337L3.35448 33.3127C2.86843 34.2016 2.14118 34.9283 1.25332 35.4143L0.274362 35.9499C0.105321 36.0421 0 36.2195 0 36.4117C0 36.6039 0.104795 36.7814 0.273836 36.8736L1.25332 37.4096ZM1.75887 36.3385C2.82419 35.7566 3.69572 34.8846 4.2792 33.8187L4.35293 33.6844L4.42613 33.8192C5.00961 34.8846 5.88114 35.7566 6.94647 36.3385L7.08075 36.4123L6.94647 36.4865C5.88061 37.0689 5.00908 37.9405 4.42613 39.0063L4.35293 39.1406L4.2792 39.0063C3.69625 37.9405 2.82472 37.0689 1.75887 36.4865L1.62458 36.4123L1.75887 36.3385Z" fill="white"></path><path d="M33.8861 18.9464L34.6961 20.4272C34.7882 20.5962 34.9657 20.7015 35.1579 20.7015C35.3501 20.7015 35.5276 20.5968 35.6197 20.4272L36.4296 18.9464C37.189 17.5572 38.3254 16.4213 39.7151 15.6614L41.196 14.8515C41.365 14.7593 41.4698 14.5819 41.4698 14.3896C41.4698 14.1974 41.365 14.02 41.196 13.9278L39.7151 13.1179C38.3254 12.358 37.1895 11.2216 36.4296 9.83292L35.6197 8.3521C35.4349 8.01349 34.8804 8.01349 34.6955 8.3521L33.8856 9.83292C33.1262 11.2221 31.9898 12.358 30.6001 13.1179L29.1193 13.9278C28.9503 14.02 28.8455 14.1974 28.8455 14.3896C28.8455 14.5819 28.9503 14.7593 29.1193 14.8515L30.6001 15.6614C31.9903 16.4213 33.1268 17.5577 33.8861 18.9464ZM30.47 14.3896L31.1062 14.0416C32.6728 13.1848 33.9535 11.9041 34.8103 10.3379L35.1584 9.70179L35.5065 10.3379C36.3628 11.9046 37.644 13.1848 39.2107 14.0416L39.8468 14.3896L39.2107 14.7377C37.644 15.5945 36.3633 16.8752 35.5065 18.4414L35.1584 19.0775L34.8103 18.4414C33.9541 16.8747 32.6728 15.5945 31.1062 14.7377L30.47 14.3896Z" fill="white"></path><path d="M4.35284 25.7606C4.64353 25.7606 4.87945 25.5252 4.87945 25.234V24.0897H6.02376C6.31445 24.0897 6.55037 23.8543 6.55037 23.563C6.55037 23.2718 6.31445 23.0364 6.02376 23.0364H4.87945V21.8916C4.87945 21.6004 4.64353 21.365 4.35284 21.365C4.06215 21.365 3.82623 21.6004 3.82623 21.8916V23.0364H2.68139C2.3907 23.0364 2.15479 23.2718 2.15479 23.563C2.15479 23.8543 2.3907 24.0897 2.68139 24.0897H3.82623V25.234C3.82623 25.5247 4.06163 25.7606 4.35284 25.7606Z" fill="white"></path><path d="M14.0657 37.2965C14.3564 37.2965 14.5923 37.0611 14.5923 36.7699V35.6251H15.7366C16.0273 35.6251 16.2632 35.3897 16.2632 35.0984C16.2632 34.8072 16.0273 34.5718 15.7366 34.5718H14.5923V33.427C14.5923 33.1358 14.3564 32.9004 14.0657 32.9004C13.775 32.9004 13.5391 33.1358 13.5391 33.427V34.5718H12.3948C12.1041 34.5718 11.8682 34.8072 11.8682 35.0984C11.8682 35.3897 12.1041 35.6251 12.3948 35.6251H13.5391V36.7699C13.5391 37.0611 13.775 37.2965 14.0657 37.2965Z" fill="white"></path><path d="M36.8294 42.0001C37.12 42.0001 37.356 41.7647 37.356 41.4735V40.3287H38.5003C38.791 40.3287 39.0269 40.0933 39.0269 39.8021C39.0269 39.5108 38.791 39.2755 38.5003 39.2755H37.356V38.1306C37.356 37.8394 37.12 37.604 36.8294 37.604C36.5387 37.604 36.3028 37.8394 36.3028 38.1306V39.2755H35.1584C34.8678 39.2755 34.6318 39.5108 34.6318 39.8021C34.6318 40.0933 34.8678 40.3287 35.1584 40.3287H36.3028V41.4735C36.3028 41.7642 36.5387 42.0001 36.8294 42.0001Z" fill="white"></path><path d="M38.1184 6.80476C38.4091 6.80476 38.645 6.56937 38.645 6.27816V5.13331H39.7893C40.08 5.13331 40.316 4.89792 40.316 4.60671C40.316 4.31549 40.08 4.0801 39.7893 4.0801H38.645V2.93579C38.645 2.64457 38.4091 2.40918 38.1184 2.40918C37.8277 2.40918 37.5918 2.64457 37.5918 2.93579V4.0801H36.4475C36.1568 4.0801 35.9209 4.31549 35.9209 4.60671C35.9209 4.89792 36.1568 5.13331 36.4475 5.13331H37.5918V6.27816C37.5918 6.56884 37.8272 6.80476 38.1184 6.80476Z" fill="white"></path><path d="M23.8899 16.9273C24.1806 16.9273 24.4166 16.6919 24.4166 16.4007V15.2559H25.5609C25.8516 15.2559 26.0875 15.0205 26.0875 14.7293C26.0875 14.4381 25.8516 14.2027 25.5609 14.2027H24.4166V13.0583C24.4166 12.7671 24.1806 12.5317 23.8899 12.5317C23.5993 12.5317 23.3633 12.7671 23.3633 13.0583V14.2027H22.2185C21.9278 14.2027 21.6919 14.4381 21.6919 14.7293C21.6919 15.0205 21.9278 15.2559 22.2185 15.2559H23.3633V16.4007C23.3633 16.6919 23.5993 16.9273 23.8899 16.9273Z" fill="white"></path><path d="M31.8439 23.5181C31.9171 23.3249 31.8697 23.1063 31.7233 22.9599C31.5769 22.8135 31.3579 22.7677 31.1651 22.8393C29.9271 23.3064 28.6453 23.5434 27.3551 23.5434C21.3908 23.5434 16.5381 18.6907 16.5381 12.7264C16.5381 11.4367 16.7751 10.155 17.2416 8.91639C17.3148 8.72313 17.2675 8.50459 17.1211 8.35819C16.9747 8.21179 16.7556 8.16598 16.5628 8.2376C11.9656 9.97224 8.87598 14.4326 8.87598 19.3364C8.87598 25.8815 14.201 31.2061 20.7462 31.2061C25.65 31.2061 30.1103 28.1165 31.8439 23.5181ZM20.7457 30.1529C14.7813 30.1529 9.92866 25.3007 9.92866 19.3364C9.92866 15.2504 12.2826 11.5026 15.8898 9.68261C15.6208 10.6821 15.4849 11.7016 15.4849 12.7264C15.4849 19.2716 20.8099 24.5966 27.3551 24.5966C28.3799 24.5966 29.3994 24.4608 30.3989 24.1917C28.579 27.7994 24.8316 30.1529 20.7457 30.1529Z" fill="white"></path></svg>
