<svg xmlns="http://www.w3.org/2000/svg" width="50" height="43" viewBox="0 0 50 43" fill="none"><path d="M48.9902 28.7501C48.9902 28.3201 48.9402 27.9001 48.8702 27.4801L48.7602 26.7101C48.226 24.1544 46.9558 21.8109 45.1061 19.9682C43.2563 18.1256 40.9079 16.8644 38.3502 16.3401L37.5702 16.2301C35.632 15.9447 33.6549 16.087 31.7776 16.6472C29.9003 17.2074 28.1685 18.1718 26.7037 19.4727C25.2389 20.7736 24.0767 22.3794 23.2987 24.1773C22.5206 25.9753 22.1457 27.9218 22.2002 29.8801C22.2121 30.4059 22.2588 30.9304 22.3402 31.4501L22.4502 32.2301C22.9861 34.7839 24.2571 37.1253 26.1067 38.966C27.9563 40.8068 30.3038 42.0665 32.8602 42.5901L33.6302 42.7001C34.292 42.8017 34.9606 42.8519 35.6302 42.8501C38.2837 42.8478 40.878 42.0654 43.0902 40.6001C43.8089 40.1052 44.4787 39.5426 45.0902 38.9201C45.4638 38.5484 45.8144 38.1543 46.1402 37.7401C47.1065 36.5081 47.8509 35.1174 48.3402 33.6301C48.5039 33.1387 48.6375 32.6377 48.7402 32.1301C48.9507 31.1074 49.0413 30.0637 49.0102 29.0201C49.0102 29.0001 48.9902 28.8501 48.9902 28.7501ZM47.7302 30.1801C47.7302 30.3801 47.7302 30.5901 47.7302 30.7901C47.7302 30.9901 47.6602 31.2901 47.6202 31.5401C47.5802 31.7901 47.5502 31.9401 47.5102 32.1401C47.4702 32.3401 47.3802 32.6301 47.3102 32.8801C47.2402 33.1301 47.2002 33.2601 47.1302 33.4501C47.0602 33.6401 46.9502 33.9401 46.8502 34.1801C46.7502 34.4201 46.7002 34.5401 46.6202 34.7101C46.5402 34.8801 46.3602 35.2001 46.2302 35.4401C46.1002 35.6801 46.0602 35.7601 45.9602 35.9101C45.8602 36.0601 45.6202 36.4201 45.4402 36.6601L45.1802 37.0301C45.0202 37.2301 44.8402 37.4101 44.6702 37.6001L40.5402 33.5401C42.6262 31.4683 45.0426 29.7583 47.6902 28.4801V28.8001C47.6902 29.0101 47.6902 29.2101 47.6902 29.4201C47.6902 29.6301 47.7502 29.9301 47.7302 30.1801ZM42.8002 39.2501C42.5502 39.4301 42.3102 39.6101 42.0502 39.7701C41.7902 39.9301 41.7302 40.0001 41.5402 40.0001C41.3502 40.0001 41.0602 40.2701 40.8102 40.3901L40.2802 40.6101C40.0429 40.7213 39.7991 40.8182 39.5502 40.9001L38.9802 41.0801C38.7302 41.1501 38.4902 41.2201 38.2402 41.2701L37.6402 41.3901L36.8902 41.5001L36.2802 41.5501C36.0302 41.5501 35.7702 41.5501 35.5202 41.5501H34.9402H34.6202C35.8984 38.9025 37.6084 36.4861 39.6802 34.4001L43.7402 38.4601C43.5502 38.6301 43.3702 38.8101 43.1702 38.9601C42.9702 39.1101 42.9202 39.1601 42.8002 39.2501ZM47.5402 27.2001C44.6122 28.5318 41.9467 30.3777 39.6702 32.6501L36.5402 29.4701L44.6802 21.3201C46.1559 22.9799 47.1455 25.0144 47.5402 27.2001ZM38.7802 33.5401C36.5078 35.8166 34.6619 38.4821 33.3302 41.4101C31.1382 40.9982 29.103 39.9876 27.4502 38.4901L35.6002 30.3501L38.7802 33.5401ZM35.6002 28.5401L32.4102 25.3501C34.6847 23.0731 36.5338 20.4079 37.8702 17.4801C40.0585 17.8942 42.0898 18.9047 43.7402 20.4001L35.6002 28.5401ZM34.4302 17.3601C34.8302 17.3201 35.2302 17.3001 35.6302 17.3001C35.9402 17.3001 36.2502 17.3001 36.5602 17.3001C35.2995 19.9659 33.6029 22.4027 31.5402 24.5101L27.4802 20.4401C28.2126 19.7716 29.0255 19.1972 29.9002 18.7301C31.3088 17.9882 32.8465 17.5232 34.4302 17.3601ZM23.5402 30.4501V30.1301C23.5402 29.9201 23.5402 29.7201 23.5402 29.5101C23.5402 29.3001 23.5402 29.0001 23.5402 28.7501C23.5402 28.5001 23.5402 28.3501 23.5402 28.1401C23.5402 27.9301 23.6102 27.6401 23.6502 27.3901C23.6902 27.1401 23.7202 26.9901 23.7702 26.7901C23.8202 26.5901 23.8902 26.3001 23.9602 26.0501C24.0302 25.8001 24.0702 25.6701 24.1402 25.4801C24.2102 25.2901 24.3302 24.9901 24.4302 24.7501C24.5302 24.5101 24.5702 24.3901 24.6502 24.2201C24.7302 24.0501 24.9102 23.7301 25.0402 23.4901C25.1702 23.2501 25.2102 23.1801 25.3102 23.0201C25.4102 22.8601 25.6502 22.5201 25.8302 22.2701C26.0102 22.0201 26.0002 22.0201 26.1002 21.9001C26.2002 21.7801 26.4302 21.5201 26.6002 21.3301L30.6602 25.3901C28.5832 27.4591 26.1772 29.169 23.5402 30.4501ZM23.7002 31.7401C26.6173 30.4006 29.2722 28.5516 31.5402 26.2801L34.7302 29.4701L26.5402 37.6101C25.0593 35.9551 24.0628 33.9241 23.6602 31.7401H23.7002ZM22.6002 21.5701C25.36 18.3853 27.1536 14.479 27.7702 10.3101C28.1023 8.39917 28.213 6.45635 28.1002 4.52008V3.96008C28.2019 3.4683 28.1927 2.96003 28.0734 2.47223C27.954 1.98442 27.7275 1.52935 27.4102 1.14008C27.0352 0.825613 26.5939 0.600164 26.1194 0.48066C25.6448 0.361157 25.1494 0.350702 24.6702 0.450081H24.0502C22.1077 0.332764 20.1581 0.440142 18.2402 0.770081C14.0747 1.41653 10.1775 3.22988 7.00018 6.00008C2.61018 10.0001 0.320183 15.9301 0.150183 23.6001H0.0701829C0.120254 24.0621 0.120254 24.5281 0.0701829 24.9901C-0.0316456 25.4835 -0.0225663 25.9933 0.0967651 26.4827C0.216097 26.9721 0.442698 27.4289 0.760183 27.8201C1.02663 28.0699 1.34183 28.2619 1.686 28.384C2.03017 28.5062 2.39588 28.5559 2.76018 28.5301C3.00018 28.5301 3.25018 28.5301 3.49018 28.5301C3.9825 28.4853 4.47787 28.4853 4.97018 28.5301V28.4501C12.6802 28.2601 18.6002 26.0001 22.6002 21.5701ZM1.70018 19.6201L8.96018 26.8801C8.51018 26.9401 8.06018 26.9901 7.59018 27.0301L1.54018 21.0001C1.59018 20.5201 1.64018 20.0601 1.70018 19.6201ZM26.6202 9.45008L19.1302 2.00008L20.5402 1.79008L26.8302 8.08008C26.7502 8.51008 26.6902 9.00008 26.6202 9.45008ZM23.2902 1.69008C23.5502 1.69008 23.8002 1.69008 24.0402 1.69008H24.7402C25.6502 1.69008 26.1502 1.63008 26.5302 2.01008C26.9102 2.39008 26.9002 3.01008 26.8502 3.88008V4.50008V4.55008C26.8502 4.79008 26.8502 5.04008 26.8502 5.29008C26.8502 5.54008 26.8502 5.96008 26.8502 6.40008L22.1702 1.70008L23.2902 1.69008ZM7.83018 6.92008C10.6081 4.49444 13.9913 2.86678 17.6202 2.21008L26.3702 11.0001C25.7132 14.6259 24.0855 18.0058 21.6602 20.7801C18.6755 23.9137 14.7439 25.9796 10.4702 26.6601L1.96018 18.1101C2.63074 13.8353 4.69426 9.9016 7.83018 6.92008ZM3.44018 27.2501C2.53018 27.2501 2.03018 27.3101 1.65018 26.9201C1.27018 26.5301 1.28018 25.9201 1.33018 25.0501C1.33018 24.8801 1.33018 24.6901 1.33018 24.5001C1.33018 23.8601 1.33018 23.2501 1.40018 22.6401L5.91018 27.1501C5.30018 27.1501 4.69018 27.2201 4.05018 27.2201L3.44018 27.2501ZM6.94018 18.8701L7.83018 17.9901L8.77018 18.9301L9.45018 18.2401L8.54018 17.3001L9.43018 16.4201L10.3602 17.3601L11.0502 16.6801L10.1102 15.7401L10.9902 14.8501L11.9302 15.7901L12.6102 15.1101L11.6702 14.1701L12.5602 13.2901L13.5002 14.2301L14.1802 13.5401L13.2402 12.6001L14.1202 11.7201L15.0602 12.6601L15.7502 11.9801L14.7802 11.0001L15.6602 10.1101L16.6002 11.0501L17.2802 10.3701L16.3402 9.43008L17.2302 8.55008L18.1702 9.49008L18.8502 8.80008L17.9102 7.86008L18.7902 6.98008L21.5402 9.78008L20.6502 10.6701L19.7102 9.73008L19.0302 10.4101L19.9702 11.3501L19.0902 12.2301L18.1502 11.2901L17.5402 12.0001L18.4702 12.9401L17.5402 13.8001L16.6002 12.8601L15.9202 13.5401L16.8602 14.4801L15.9702 15.3701L15.0302 14.4301L14.3502 15.1101L15.2902 16.0501L14.4102 16.9301L13.4702 16.0001L12.7902 16.6901L13.7302 17.6301L12.8402 18.5101L11.9002 17.5701L11.2202 18.2501L12.1602 19.1901L11.2702 20.0801L10.3302 19.1401L9.65018 19.8201L10.5902 20.7601L9.71018 21.6401L6.94018 18.8701Z" fill="white"></path></svg>
