<svg xmlns="http://www.w3.org/2000/svg" width="60" height="43" viewBox="0 0 60 43" fill="none"><path d="M15.3736 36.4142C16.5302 36.4142 17.4714 35.4743 17.4714 34.315C17.4714 33.1585 16.5302 32.2173 15.3736 32.2173C14.2157 32.2173 13.2759 33.1585 13.2759 34.315C13.2759 35.4729 14.2157 36.4142 15.3736 36.4142ZM15.3736 33.5716C15.784 33.5716 16.1171 33.9047 16.1171 34.315C16.1171 34.7254 15.784 35.0599 15.3736 35.0599C14.9633 35.0599 14.6301 34.7254 14.6301 34.315C14.6301 33.9047 14.9633 33.5716 15.3736 33.5716Z" fill="white"></path><path d="M53.7266 17.8528C53.2432 17.7079 52.8585 17.3544 52.6716 16.8872C51.4176 13.7751 49.76 10.8377 47.7408 8.15623C46.1901 6.09638 43.7226 4.86399 41.1414 4.86399H36.6682L35.3871 1.60968C35.1176 0.931192 34.4743 0.495117 33.7444 0.495117H31.1035C30.3736 0.495117 29.7276 0.932547 29.4608 1.61104L28.1783 4.86399H23.7052C21.1239 4.86399 18.6578 6.09503 17.1058 8.15623C14.9525 11.0151 13.215 14.1584 11.9379 17.498H8.25834C3.76216 17.498 0.0961534 21.1152 0.00812584 25.5952C0.00812584 25.606 0 25.6168 0 25.6277C0 25.6344 0.00541718 25.6412 0.00541718 25.648C0.00541718 25.6846 0 25.7198 0 25.7563V33.0301C0 33.4025 0.302003 33.7073 0.677136 33.7073H7.2291C7.21555 33.9009 7.20066 34.0932 7.20066 34.2923C7.20066 34.2923 7.20066 34.295 7.20066 34.2977C7.20066 34.3058 7.19795 34.3126 7.19795 34.318C7.19795 38.825 10.8667 42.4938 15.3737 42.4938C17.6082 42.4938 19.6369 41.5878 21.1158 40.1292C21.1293 40.117 21.1402 40.1035 21.1524 40.094C22.6258 38.6192 23.5386 36.5878 23.5467 34.3465C23.5467 34.3438 23.5467 34.3397 23.5467 34.337C23.5467 34.3316 23.5467 34.3248 23.5467 34.318C23.5467 34.1135 23.5305 33.909 23.5183 33.71H36.0724C36.0561 33.909 36.0426 34.1135 36.0426 34.318C36.0426 34.3262 36.0453 34.3316 36.0453 34.3383C36.0453 34.3397 36.0453 34.3438 36.0453 34.3465C36.0507 36.5878 36.9662 38.6219 38.4396 40.0994C38.4532 40.1102 38.464 40.1184 38.4735 40.1279C39.9523 41.5891 41.9783 42.4951 44.2156 42.4951C48.7226 42.4951 52.3913 38.8264 52.3913 34.3194C52.3913 34.314 52.3886 34.3072 52.3886 34.2991C52.3886 34.2964 52.3886 34.2937 52.3886 34.2909C52.3886 34.0946 52.371 33.9023 52.3602 33.7086H58.9148C59.2873 33.7086 59.592 33.4039 59.592 33.0315V25.7577C59.5893 22.0917 57.2315 18.9173 53.7266 17.8528ZM30.7203 2.10805C30.7839 1.9496 30.9343 1.84939 31.1035 1.84939H33.743C33.9123 1.84939 34.0626 1.95231 34.1263 2.10805L35.2137 4.86399H29.6328L30.7203 2.10805ZM9.84555 30.3527L10.1123 31.0854C10.2126 31.3576 10.4726 31.5269 10.7475 31.5269C10.8274 31.5269 10.9059 31.5133 10.9831 31.4849C11.3325 31.3576 11.5127 30.9662 11.3826 30.6168L10.8721 29.2327C11.8133 28.3999 12.9726 27.8229 14.2632 27.6103L13.9382 28.3145C13.7824 28.6531 13.93 29.0553 14.2686 29.2138C14.3607 29.2544 14.4596 29.2747 14.5543 29.2747C14.809 29.2747 15.0541 29.1312 15.1678 28.8806L15.7867 27.5413C17.1071 27.6225 18.3233 28.0627 19.3336 28.7899L18.6063 29.058C18.2542 29.1867 18.0741 29.5767 18.2041 29.9275C18.3043 30.201 18.5643 30.3703 18.8393 30.3703C18.9192 30.3703 18.9977 30.3568 19.0749 30.3283L20.4576 29.8191C21.2905 30.759 21.8674 31.9183 22.0814 33.2075L21.3772 32.8866C21.0386 32.7308 20.6364 32.8757 20.4779 33.217C20.3222 33.5556 20.4698 33.9578 20.8084 34.1162L22.1491 34.7338C22.0692 36.0529 21.6277 37.2676 20.9005 38.2806L20.6337 37.5507C20.5037 37.1999 20.1123 37.0212 19.7629 37.1498C19.4135 37.2798 19.2334 37.6685 19.3634 38.0206L19.8712 39.4033C18.9327 40.2335 17.7735 40.8131 16.4828 41.0257L16.8051 40.3229C16.9609 39.9843 16.8133 39.5794 16.4747 39.4236C16.1361 39.2706 15.7339 39.4142 15.5755 39.7541L14.9566 41.0948C13.6389 41.0122 12.4227 40.5734 11.4097 39.8462L12.1397 39.5767C12.4891 39.4467 12.6692 39.058 12.5392 38.7059C12.4092 38.3538 12.0178 38.1763 11.6711 38.3064L10.2857 38.8142C9.45552 37.8771 8.87589 36.7164 8.66463 35.4258L9.36614 35.7509C9.45823 35.7915 9.55709 35.8118 9.65189 35.8118C9.90649 35.8118 10.1516 35.6669 10.2654 35.4177C10.4211 35.0791 10.2735 34.6756 9.93493 34.5212L8.5942 33.8996C8.67681 32.5819 9.1156 31.3657 9.84555 30.3527ZM39.1289 29.8164L40.5144 30.3256C40.5916 30.3541 40.6701 30.3676 40.7473 30.3676C41.0222 30.3676 41.2822 30.1983 41.3825 29.9248C41.5125 29.574 41.3323 29.184 40.9829 29.054L40.253 28.7872C41.266 28.0599 42.4808 27.6198 43.7998 27.5386L44.4187 28.8793C44.5325 29.1271 44.779 29.2734 45.0322 29.2734C45.127 29.2734 45.2259 29.2517 45.318 29.2097C45.6565 29.054 45.8041 28.6518 45.6484 28.3105L45.3234 27.6076C46.614 27.8216 47.776 28.3985 48.7145 29.2314L48.2039 30.6155C48.0739 30.9649 48.254 31.3562 48.6061 31.4835C48.6833 31.512 48.7619 31.5255 48.8391 31.5255C49.114 31.5255 49.3754 31.3562 49.4742 31.084L49.7437 30.3541C50.471 31.3644 50.9097 32.5819 50.9924 33.9009L49.653 34.5198C49.3144 34.6756 49.1668 35.0778 49.3225 35.4191C49.439 35.6669 49.6841 35.8104 49.9387 35.8104C50.0322 35.8104 50.1297 35.7915 50.2218 35.7495L50.9246 35.4245C50.7134 36.7178 50.1337 37.8757 49.3036 38.8156L47.9182 38.305C47.5715 38.175 47.1774 38.3551 47.0501 38.7072C46.9201 39.058 47.1002 39.448 47.4496 39.5767L48.1795 39.8462C47.1665 40.5734 45.9504 41.0108 44.6327 41.0948L44.0138 39.7541C43.8581 39.4142 43.4504 39.2692 43.1173 39.425C42.776 39.5794 42.6284 39.9829 42.7841 40.3242L43.1091 41.0257C41.8158 40.8131 40.6566 40.2348 39.7181 39.4033L40.2286 38.0193C40.3586 37.6685 40.1785 37.2812 39.8264 37.1498C39.4797 37.0212 39.0856 37.1999 38.957 37.5507L38.6888 38.2806C37.9616 37.2676 37.5228 36.0515 37.4402 34.7338L38.7795 34.1149C39.1181 33.9564 39.2644 33.5542 39.11 33.2157C38.9515 32.8744 38.5493 32.7295 38.2108 32.8852L37.5079 33.2075C37.7192 31.9128 38.2974 30.7549 39.1289 29.8164ZM58.235 32.353H52.1408C51.7765 30.8904 51.0303 29.5781 49.9956 28.5434C49.9807 28.5299 49.9672 28.515 49.9536 28.5041C48.4775 27.0442 46.4488 26.1409 44.2156 26.1409C44.2102 26.1409 44.2034 26.1409 44.198 26.1409C44.1926 26.1409 44.1899 26.1409 44.1844 26.1409C41.9445 26.1491 39.9104 27.0632 38.4369 28.5394C38.4261 28.5475 38.4166 28.5597 38.4085 28.5692C37.3901 29.5998 36.6493 30.9012 36.2904 32.3503H23.3002C22.94 30.9012 22.2019 29.5998 21.1821 28.5692C21.174 28.5583 21.1632 28.5461 21.1537 28.5394C19.6803 27.0632 17.6461 26.1491 15.4062 26.1409C15.4008 26.1409 15.3981 26.1409 15.3926 26.1409C15.3872 26.1409 15.3818 26.1409 15.3764 26.1409C13.1391 26.1409 11.1104 27.0456 9.63428 28.5055C9.62074 28.5163 9.60991 28.5258 9.60043 28.5353C8.56306 29.5713 7.8155 30.8863 7.44984 32.3516H1.35563V30.3351H3.62809C4.00322 30.3351 4.30523 30.0304 4.30523 29.658C4.30523 29.2829 4.00322 28.9809 3.62809 28.9809H1.35563V28.3186H3.62809C4.00322 28.3186 4.30523 28.0139 4.30523 27.6415C4.30523 27.2677 4.00322 26.9643 3.62809 26.9643H1.35563V26.3035H3.62809C4.00322 26.3035 4.30523 25.9987 4.30523 25.6263C4.30523 25.2525 4.00322 24.9492 3.62809 24.9492H1.43688C1.84181 21.5242 4.72776 18.8509 8.25834 18.8509H12.4065C12.6895 18.8509 12.9428 18.6748 13.0416 18.4081C14.2903 15.0251 16.0197 11.8493 18.1892 8.97014C19.488 7.24751 21.5478 6.21827 23.7065 6.21827H28.655H41.1427C43.3015 6.21827 45.364 7.24751 46.66 8.97014C48.6075 11.5568 50.2055 14.3899 51.4162 17.3924C51.7575 18.2428 52.4577 18.8848 53.3339 19.1488C56.2645 20.0372 58.235 22.693 58.235 25.755V32.353Z" fill="white"></path><path d="M44.8263 10.3487C43.9583 9.19758 42.5837 8.51367 41.1414 8.51367H23.7065C22.2655 8.51367 20.8896 9.20029 20.0215 10.3487C18.2704 12.6753 16.8187 15.22 15.7 17.9137C15.6147 18.1222 15.6364 18.3606 15.7637 18.5502C15.8883 18.7384 16.0996 18.8508 16.3271 18.8508H48.5249C48.7497 18.8508 48.9596 18.7384 49.0882 18.5502C49.2128 18.3606 49.2345 18.1236 49.1492 17.9137C48.0319 15.2227 46.5774 12.6794 44.8263 10.3487ZM21.1036 11.1653C21.7171 10.3514 22.6881 9.86794 23.7065 9.86794H32.4916L30.5605 17.4979H17.355C18.368 15.2539 19.6274 13.129 21.1036 11.1653ZM31.9554 17.4979L33.8893 9.86794H41.1414C42.1598 9.86794 43.1308 10.3514 43.7443 11.1653C45.2231 13.1304 46.4813 15.2566 47.4929 17.4979H31.9554Z" fill="white"></path><path d="M44.213 36.4142C45.3709 36.4142 46.3135 35.4743 46.3135 34.315C46.3135 33.1585 45.3736 32.2173 44.213 32.2173C43.0565 32.2173 42.1152 33.1585 42.1152 34.315C42.1152 35.4729 43.0578 36.4142 44.213 36.4142ZM44.213 33.5716C44.6233 33.5716 44.9592 33.9047 44.9592 34.315C44.9592 34.7254 44.6233 35.0599 44.213 35.0599C43.8027 35.0599 43.4695 34.7254 43.4695 34.315C43.4695 33.9047 43.8027 33.5716 44.213 33.5716Z" fill="white"></path></svg>
